<svg xmlns="http://www.w3.org/2000/svg" viewBox="0 0 613.22 499.11"><path d="M685.1,715.93s59.32,43,135.41,52.12,107.33,6.72,182.53-15.84,138.58-86.05,154-112.33,79.7-105.91,79.7-220.1l-.91-21.74s48.92-38,62.51-64.31c0,0-58.84,21.73-70.61,19,0,0,43.49-29.89,53.44-68.84,0,0-41.65,24.44-79.7,29.88,0,0-31.7-41.67-98.73-39.85s-102.36,58-107.79,73.36-15.39,44.4-8.15,81.53c0,0-140.4,5.43-259-131.34,0,0-58.84,87.85,37.13,166.66,0,0-10.87,4.54-55.25-14.49,0,0-4.53,96.91,99.63,125,0,0-22.64,8.16-55.25,2.71,0,0,17.21,78.81,116.85,87C870.79,664.31,800.13,728.62,685.1,715.93Z" transform="translate(-685.1 -273.89)"/></svg>